<?xml version="1.0" encoding="UTF-8"?>
<svg id="Layer_2" data-name="Layer 2" xmlns="http://www.w3.org/2000/svg" viewBox="0 0 322.95 472.7">
  <defs>
    <style>
      .cls-1 {
        fill: #0b0a0a;
        stroke-width: 0px;
      }
    </style>
  </defs>
  <g id="Shapes">
    <g>
      <path class="cls-1" d="M131.98,317.98c-18.71,17.41-37.44,34.79-56.12,52.23-19.53,18.23-38.96,36.55-57.75,55.56-7.57,7.66-15.13,14.97-14,26.47-1.5,1.32-2.65.95-4.07.82v-76.79c.87-1.01,2.06-1.02,3.76-.02.31,3.54-.12,7.37.49,11.17,2.06,12.87,17.68,19.69,27.73,11.45,9.65-7.91,18.52-16.76,27.71-25.22,40.17-36.97,79.01-75.36,120.04-111.4.25-.22.34-.63.61-1.14-1.56-1.03-3.29-.48-4.89-.48-35.97-.04-71.94-.1-107.91,0-13.44.04-26.83.75-39.91,4.4-11.27,3.14-19.49,9.02-20.59,21.41-2.74,1.66-4.56-.98-7.08-.65v-99.83c2.47-1.52,4.34.62,6.46.84,2.64,15.46,8.88,20.24,27.73,22.95,20.48,2.94,41.04,2.02,61.59,2.19,10.38.09,20.76.02,31.22.02,15.3-11.84,29.78-24.24,39.61-41.31,11.68-20.29,6.34-39.19-14.55-49.54-17.61-8.72-36.71-13.08-55.34-18.81-17.92-5.51-36-10.57-53.15-18.32-11.58-5.23-23.2-10.62-30.92-21.3C1.93,47.85-.05,31.76,7.2,14.86,10.25,7.74,14.34,3.97,21.81,0c1.43.36,2.18,1.39,2.57,2.73-5.35,10.68-3.11,19.3,7.22,27.58,8.95,7.17,19.47,11.36,29.95,15.6,28.23,11.4,57.65,19.23,86.51,28.74,10.84,3.57,21.07,8.42,29.48,16.3,16.11,15.12,18.85,33.9,14.45,54.54-.58,2.74-2.22,5.28-1.84,8.15,1.9,1.14,2.57-.48,3.43-1.29,38.14-36.04,77.27-71.04,114.11-108.44,8.93-9.06,9.31-9.76,11.56-24.07.96-1.01,2.16-.36,3.58-.69v77.3c-1.15,1.05-2.31,1.05-3.91-.4,0-2.69.03-5.73,0-8.77-.11-8.28-5.16-12.8-12.13-15.84-6.84-2.98-12.7-1.17-17.9,3.68-17.45,16.24-34.83,32.56-52.34,48.73-31.45,29.05-61.98,59.08-94.25,87.56,1.59.99,3.31.5,4.91.51,37.32.03,74.63.11,111.95-.02,10.75-.04,21.5-.85,32.01-3.32,16.32-3.83,20.25-7.48,25.16-22.88,2.48-1.16,4.16,1.49,6.62.93v99.93c-2.66,1.27-4.54-.55-7.23-1.14,1.56-12.07-6.04-16.93-16.1-19.98-11.89-3.6-24.14-4.51-36.39-4.72-20.77-.36-41.55-.1-62.32-.12-2.51,0-4.97-.1-7.11,1.61-14.32,11.42-28.01,23.33-37.37,39.52-11.9,20.58-6.55,39.35,14.73,49.88,17.26,8.55,35.99,12.85,54.26,18.47,18.83,5.79,37.85,11.03,55.79,19.38,10.84,5.05,21.33,10.53,28.99,20.18,11.34,14.29,12.82,36.45,3.45,51.87-3.09,5.09-7.43,8.63-12.51,11.21-1.35-.61-2.15-1.38-2.49-2.56,5.03-11.4,3.2-18.89-6.6-27.3-7.09-6.08-15.52-9.82-23.96-13.42-25.56-10.9-52.26-18.54-78.7-26.88-9.12-2.87-18.35-5.43-27.01-9.64-28.33-13.77-39.5-39.13-30.47-69.39.38-1.28.71-2.58,1.07-3.87.04-.35.07-.7.08-1.06-.28-.32-.9-.07-1.06-.6Z"/>
      <path class="cls-1" d="M131.98,317.98c.33-.61.64-1.26,1.56-1.01.44,1.03.42,1.95-.58,2.67-.32-.55-.65-1.11-.97-1.66Z"/>
      <path class="cls-1" d="M189.24,154.8c.34-.44.71-.57,1.05.08-.35.43-.72.62-1.05-.08Z"/>
    </g>
  </g>
</svg>